<?xml version="1.0" encoding="UTF-8" standalone="no"?>
<!-- Created with Inkscape (http://www.inkscape.org/) -->

<svg
   xmlns="http://www.w3.org/2000/svg"
   viewBox="0 0 270.42255 270.42255"
  <metadata
     id="metadata3686">
    <rdf:RDF>
      <cc:Work
         rdf:about="">
        <dc:format>image/svg+xml</dc:format>
        <dc:type
           rdf:resource="http://purl.org/dc/dcmitype/StillImage" />
        <dc:title></dc:title>
      </cc:Work>
    </rdf:RDF>
  </metadata>
  <defs
     id="defs3684" />
  <path
     style="fill:#000000;stroke-width:3.38028193"
     d="M 0,135.21127 V 0 H 135.21127 270.42255 V 135.21127 270.42255 H 135.21127 0 Z m 130.69068,4.22536 23.64455,-90.422543 -14.9185,-4.502633 c -8.20517,-2.476449 -15.81209,-3.60905 -16.90425,-2.516884 -1.79033,1.790329 -47.77652,172.6423 -48.037227,178.47217 -0.113544,2.53939 17.910971,8.55769 27.216837,9.08757 4.21365,0.23993 10.39025,-18.95482 28.99859,-90.11768 z m 62.56429,64.54652 c 8.11272,-7.34191 7.85762,-19.77196 -0.5789,-28.20849 -8.62007,-8.62007 -17.05612,-8.578 -26.40487,0.13169 -8.7324,8.13547 -9.36166,15.84217 -2.13585,26.15845 6.29003,8.98027 20.29668,9.90302 29.11962,1.91837 z"
     id="path3690"
     inkscape:connector-curvature="0" />
</svg>
